<?xml version="1.0" encoding="UTF-8" standalone="no"?>
<svg width="66px" height="88px" viewBox="0 0 66 88" version="1.1" xmlns="http://www.w3.org/2000/svg" xmlns:xlink="http://www.w3.org/1999/xlink" style="background: transparent">
        <g id="lg-burg-logo" fill="#FFFFFF">
            <path d="M5.06332631,76.8947364 L10.2580629,76.8947364 L10.2580629,75.8834944 L6.26850521,75.8834944 L6.26850521,67.5580631 L5.06332631,67.5580631 L5.06332631,76.8947364 Z M19.3552837,71.9909051 L16.2799996,71.9909051 L16.2799996,72.9605892 L18.17781,72.9605892 L18.17781,75.7449681 C17.9007574,75.8834944 17.3605048,75.9943154 16.5709048,75.9943154 C14.3960418,75.9943154 12.9692208,74.5951997 12.9692208,72.2263998 C12.9692208,69.8853051 14.4514523,68.4723368 16.7232838,68.4723368 C17.6652627,68.4723368 18.2886311,68.652421 18.7873258,68.8740631 L19.0782311,67.8905263 C18.6765048,67.6965894 17.8314943,67.4610947 16.750989,67.4610947 C13.6202944,67.4610947 11.7086314,69.4974315 11.6947787,72.2818103 C11.6947787,73.7363366 12.1934734,74.9830734 12.996926,75.7588207 C13.9111997,76.6315365 15.0748207,76.9917049 16.4877891,76.9917049 C17.7483785,76.9917049 18.8150311,76.6730943 19.3552837,76.4791575 L19.3552837,71.9909051 Z M26.5091782,76.8670312 L26.5091782,67.6827368 C27.0355782,67.5719158 27.8667361,67.4888 28.7117465,67.4888 C29.9169254,67.4888 30.6926728,67.6965894 31.2744833,68.1675789 C31.7593254,68.5277473 32.0502306,69.0818525 32.0502306,69.816042 C32.0502306,70.716463 31.4545675,71.506063 30.4710307,71.8662314 L30.4710307,71.8939366 C31.3575991,72.1155787 32.3965464,72.8497682 32.3965464,74.2350313 C32.3965464,75.0384839 32.0779359,75.6479996 31.6069464,76.1051365 C30.9558728,76.7007996 29.9030728,76.9778522 28.3792834,76.9778522 C27.5481255,76.9778522 26.9109045,76.9224417 26.5091782,76.8670312 Z M27.7143571,68.500042 L27.7143571,71.506063 L28.808715,71.506063 C30.083157,71.506063 30.8311991,70.8411367 30.8311991,69.9407157 C30.8311991,68.8463578 30.0000412,68.4169263 28.7810097,68.4169263 C28.2269045,68.4169263 27.9082939,68.4584842 27.7143571,68.500042 Z M27.7143571,72.4203366 L27.7143571,75.9804628 C27.9498518,76.0220207 28.2961676,76.0358733 28.7255992,76.0358733 C29.972336,76.0358733 31.1221043,75.5787365 31.1221043,74.2211787 C31.1221043,72.9467366 30.0277465,72.4203366 28.7117465,72.4203366 L27.7143571,72.4203366 Z M35.19082,67.5580631 L35.19082,73.0575576 C35.19082,75.9527575 36.6314936,77.0471154 38.5431567,77.0471154 C40.5656409,77.0471154 42.0755776,75.8696417 42.0755776,73.0021471 L42.0755776,67.5580631 L40.8565461,67.5580631 L40.8565461,73.0852629 C40.8565461,75.1493049 39.9699777,76.0635786 38.5847146,76.0635786 C37.3379778,76.0635786 36.4098515,75.1770102 36.4098515,73.0852629 L36.4098515,67.5580631 L35.19082,67.5580631 Z M45.3546933,76.8947364 L45.3546933,67.6827368 C45.9642091,67.5580631 46.8369249,67.4888 47.6680827,67.4888 C48.9563774,67.4888 49.7875353,67.7242947 50.3693458,68.2506947 C50.8403352,68.6662736 51.1035352,69.3034946 51.1035352,70.0238315 C51.1035352,71.2567156 50.3277879,72.0740208 49.3442511,72.406484 L49.3442511,72.4480419 C50.0645879,72.6973892 50.4940194,73.3623155 50.7156615,74.3319997 C51.0204194,75.634147 51.2420615,76.534568 51.4359984,76.8947364 L50.1892616,76.8947364 C50.0368826,76.6315365 49.8290932,75.8280839 49.5658932,74.6644628 C49.2888405,73.3761682 48.7901458,72.8913261 47.695788,72.8497682 L46.5598722,72.8497682 L46.5598722,76.8947364 L45.3546933,76.8947364 Z M46.5598722,68.5277473 L46.5598722,71.9354945 L47.7927564,71.9354945 C49.0810511,71.9354945 49.8983563,71.2290104 49.8983563,70.1623578 C49.8983563,68.9571789 49.0256406,68.4307789 47.7511985,68.4169263 C47.169388,68.4169263 46.7538091,68.4723368 46.5598722,68.5277473 Z M61.101177,71.9909051 L58.0258929,71.9909051 L58.0258929,72.9605892 L59.9237033,72.9605892 L59.9237033,75.7449681 C59.6466507,75.8834944 59.1063981,75.9943154 58.3167981,75.9943154 C56.141935,75.9943154 54.7151141,74.5951997 54.7151141,72.2263998 C54.7151141,69.8853051 56.1973456,68.4723368 58.4691771,68.4723368 C59.411156,68.4723368 60.0345244,68.652421 60.5332191,68.8740631 L60.8241243,67.8905263 C60.422398,67.6965894 59.5773875,67.4610947 58.4968823,67.4610947 C55.3661877,67.4610947 53.4545246,69.4974315 53.440672,72.2818103 C53.440672,73.7363366 53.9393667,74.9830734 54.7428193,75.7588207 C55.657093,76.6315365 56.820714,76.9917049 58.2336823,76.9917049 C59.4942718,76.9917049 60.5609243,76.6730943 61.101177,76.4791575 L61.101177,71.9909051 Z" id="LG-BURG"></path>
            <path d="M6.54852625,83.8210519 L6.93442097,82.2527362 C7.03336834,81.8717889 7.09768413,81.5502099 7.15705254,81.1939994 L7.16694728,81.1939994 C7.20652623,81.5551573 7.26589464,81.8717889 7.3499999,82.2527362 L7.69631568,83.8210519 L8.34936829,83.8210519 L9.24484193,80.4865258 L8.62642091,80.4865258 L8.28010513,81.9954731 C8.1910525,82.4011573 8.11189461,82.7821046 8.05252619,83.1482099 L8.04263146,83.1482099 C7.99315777,82.787052 7.92389462,82.4159994 7.83978936,82.0202099 L7.50831569,80.4865258 L6.87010519,80.4865258 L6.50894731,81.9954731 C6.41494731,82.4159994 6.32094731,82.8117888 6.26652626,83.163052 L6.25663153,83.163052 C6.20221048,82.8315783 6.12305259,82.4061046 6.03894733,82.0004204 L5.72231576,80.4865258 L5.07421052,80.4865258 L5.89052628,83.8210519 L6.54852625,83.8210519 Z M10.2442103,80.4865258 L10.2442103,83.8210519 L10.8527366,83.8210519 L10.8527366,80.4865258 L10.2442103,80.4865258 Z M14.0091576,81.847052 L12.752526,81.847052 L12.752526,80.98621 L14.0833681,80.98621 L14.0833681,80.4865258 L12.1439998,80.4865258 L12.1439998,83.8210519 L14.1575786,83.8210519 L14.1575786,83.3213678 L12.752526,83.3213678 L12.752526,82.3417889 L14.0091576,82.3417889 L14.0091576,81.847052 Z M15.2855786,83.8111572 L15.2855786,80.5310521 C15.5527365,80.4865258 15.8941049,80.4617889 16.2552628,80.4617889 C16.8786312,80.4617889 17.3090522,80.5904205 17.615789,80.8476836 C17.937368,81.1098942 18.1352627,81.5056836 18.1352627,82.074631 C18.1352627,82.6683152 17.9324206,83.1135783 17.615789,83.4005257 C17.2843154,83.7023151 16.754947,83.8556835 16.1068417,83.8556835 C15.7506312,83.8556835 15.4834733,83.8358941 15.2855786,83.8111572 Z M15.8941049,80.9713679 L15.8941049,83.3559993 C15.9782102,83.3708414 16.1068417,83.3708414 16.2305259,83.3708414 C17.0221048,83.3757888 17.4921048,82.9404204 17.4921048,82.0944204 C17.4970522,81.3572626 17.0715785,80.9367363 16.3096838,80.9367363 C16.1167365,80.9367363 15.9782102,80.9515784 15.8941049,80.9713679 Z M21.1234731,81.847052 L19.8668416,81.847052 L19.8668416,80.98621 L21.1976836,80.98621 L21.1976836,80.4865258 L19.2583153,80.4865258 L19.2583153,83.8210519 L21.2718942,83.8210519 L21.2718942,83.3213678 L19.8668416,83.3213678 L19.8668416,82.3417889 L21.1234731,82.3417889 L21.1234731,81.847052 Z M22.9589468,83.8210519 L22.9589468,82.6287362 C22.9589468,82.0795783 22.9539994,81.6392626 22.9292625,81.2088415 L22.9441047,81.2038942 C23.1073678,81.5798941 23.3299994,81.9905257 23.5427362,82.356631 L24.413473,83.8210519 L25.0417888,83.8210519 L25.0417888,80.4865258 L24.4777888,80.4865258 L24.4777888,81.6491573 C24.4777888,82.1587362 24.4926309,82.5891573 24.5322099,83.0344204 L24.5223151,83.0344204 C24.3689467,82.6732625 24.1759993,82.2873678 23.9533678,81.9163152 L23.0925257,80.4865258 L22.3998941,80.4865258 L22.3998941,83.8210519 L22.9589468,83.8210519 Z M26.3379993,83.8111572 L26.3379993,80.5310521 C26.5309466,80.4914731 26.8822098,80.4617889 27.2235782,80.4617889 C27.6737887,80.4617889 27.9508413,80.51621 28.1784203,80.6745258 C28.3862097,80.79821 28.524736,81.0158942 28.524736,81.2978942 C28.524736,81.604631 28.3317887,81.886631 27.9706308,82.0202099 L27.9706308,82.0301047 C28.3218939,82.1191573 28.6434729,82.3962099 28.6434729,82.8563151 C28.6434729,83.1531572 28.5148413,83.3856835 28.3218939,83.5439993 C28.0844203,83.7517888 27.6935782,83.8556835 27.0850519,83.8556835 C26.7486308,83.8556835 26.4913677,83.8309467 26.3379993,83.8111572 Z M26.9415782,80.9367363 L26.9415782,81.847052 L27.2532624,81.847052 C27.6737887,81.847052 27.9112624,81.6491573 27.9112624,81.3671573 C27.9112624,81.0554731 27.6737887,80.9119994 27.287894,80.9119994 C27.1097887,80.9119994 27.005894,80.9218942 26.9415782,80.9367363 Z M26.9415782,82.2923152 L26.9415782,83.3807362 C27.0207361,83.3906309 27.1246308,83.3955783 27.2631571,83.3955783 C27.6539992,83.3955783 28.000315,83.2471572 28.000315,82.8365257 C28.000315,82.450631 27.663894,82.2923152 27.2433677,82.2923152 L26.9415782,82.2923152 Z M29.7813676,83.8210519 L29.7813676,80.5310521 C30.0089465,80.4914731 30.3503149,80.4617889 30.7015781,80.4617889 C31.1814728,80.4617889 31.5079991,80.5409468 31.7306307,80.7289468 C31.9136833,80.8823152 32.017578,81.1148415 32.017578,81.3968415 C32.017578,81.8272626 31.7256833,82.1191573 31.4139991,82.2329468 L31.4139991,82.2477889 C31.6514728,82.3368415 31.7949464,82.5693678 31.8790517,82.8909467 C31.9829464,83.3065257 32.0719991,83.6924204 32.1412622,83.8210519 L31.5129465,83.8210519 C31.4634728,83.7221046 31.3843149,83.4499993 31.2903149,83.0344204 C31.1963149,82.599052 31.0379991,82.4605257 30.6916833,82.450631 L30.3849465,82.450631 L30.3849465,83.8210519 L29.7813676,83.8210519 Z M30.3849465,80.9515784 L30.3849465,82.0053678 L30.7461044,82.0053678 C31.1567359,82.0053678 31.4139991,81.7876836 31.4139991,81.4562099 C31.4139991,81.0901047 31.1567359,80.9218942 30.7609465,80.9218942 C30.5679991,80.9218942 30.4443149,80.9367363 30.3849465,80.9515784 Z M33.1653675,80.4865258 L33.1653675,82.3962099 C33.1653675,83.445052 33.6650517,83.875473 34.4368411,83.875473 C35.2383148,83.875473 35.7676832,83.4203151 35.7676832,82.3912625 L35.7676832,80.4865258 L35.1591569,80.4865258 L35.1591569,82.4308415 C35.1591569,83.0838941 34.8969463,83.3856835 34.4566306,83.3856835 C34.045999,83.3856835 33.7738938,83.0838941 33.7738938,82.4308415 L33.7738938,80.4865258 L33.1653675,80.4865258 Z M34.0014727,80.2787363 C34.1696832,80.2787363 34.2884201,80.14021 34.2884201,79.9769468 C34.2884201,79.8087363 34.1647358,79.6801047 34.0014727,79.6801047 C33.8332622,79.6801047 33.7046306,79.8087363 33.7046306,79.9769468 C33.7046306,80.14021 33.8283148,80.2787363 34.0014727,80.2787363 Z M34.9761042,80.2787363 C35.1492621,80.2787363 35.267999,80.14021 35.267999,79.9769468 C35.267999,79.8087363 35.1443148,79.6801047 34.9810516,79.6801047 C34.8128411,79.6801047 34.6842095,79.8087363 34.6842095,79.9769468 C34.6842095,80.14021 34.8029463,80.2787363 34.9761042,80.2787363 Z M39.3495778,83.2422099 C39.191262,83.3164204 38.9339988,83.3658941 38.6866304,83.3658941 C37.9544199,83.3658941 37.5239989,82.8958941 37.5239989,82.1636836 C37.5239989,81.3622099 38.0137883,80.9367363 38.6915778,80.9367363 C38.9686304,80.9367363 39.1863146,80.9961047 39.3446304,81.0653679 L39.4782093,80.5805258 C39.3545251,80.51621 39.0675778,80.4321047 38.666841,80.4321047 C37.6476831,80.4321047 36.8857884,81.0950521 36.8857884,82.1933678 C36.8857884,83.2075783 37.5289463,83.8705256 38.5876831,83.8705256 C38.9884199,83.8705256 39.3050515,83.7963151 39.4485251,83.7221046 L39.3495778,83.2422099 Z M40.561683,83.8210519 L41.1652619,83.8210519 L41.1652619,82.6485257 L41.462104,82.2923152 L42.4070513,83.8210519 L43.1194724,83.8210519 L41.8974724,81.9064204 L43.0452618,80.4865258 L42.2932619,80.4865258 L41.4225251,81.659052 C41.3433672,81.7728415 41.2592619,81.8915783 41.180104,82.0202099 L41.1652619,82.0202099 L41.1652619,80.4865258 L40.561683,80.4865258 L40.561683,83.8210519 Z M45.5684196,80.1105258 L45.5684196,85.057894 L46.0087354,85.057894 L46.0087354,80.1105258 L45.5684196,80.1105258 Z M49.6549458,83.8210519 L50.2436826,83.8210519 L50.2436826,80.6052626 L49.7341037,80.6052626 L48.9524195,80.9911573 L49.0563142,81.4512626 L49.6450511,81.1544205 L49.6549458,81.1544205 L49.6549458,83.8210519 Z M52.3908404,83.8655783 L52.3908404,83.3856835 C52.4848404,83.3955783 52.5788404,83.3906309 52.7272615,83.3757888 C52.9647351,83.3559993 53.2022088,83.2718941 53.3803141,83.1284204 C53.5881035,82.9602099 53.7315772,82.7177888 53.7909456,82.4159994 L53.7810509,82.411052 C53.6177877,82.5941046 53.3902088,82.6979994 53.0785246,82.6979994 C52.519472,82.6979994 52.1038931,82.2923152 52.1038931,81.698631 C52.1038931,81.0851573 52.5788404,80.5508416 53.2665246,80.5508416 C54.0135772,80.5508416 54.414314,81.1395784 54.414314,81.9212626 C54.414314,82.6089467 54.1867351,83.0987362 53.8552614,83.4153678 C53.5732614,83.6775783 53.1873667,83.8259993 52.7569457,83.8556835 C52.6184194,83.8705256 52.479893,83.8705256 52.3908404,83.8655783 Z M53.2368404,81.0010521 C52.9301036,81.0010521 52.707472,81.2731573 52.707472,81.6639994 C52.7124194,81.9954731 52.9004193,82.2527362 53.2368404,82.2527362 C53.4842088,82.2527362 53.6623141,82.1389468 53.756314,81.9855783 C53.7761035,81.9459994 53.7909456,81.8965257 53.7909456,81.8124205 C53.795893,81.377052 53.6326298,81.0010521 53.2368404,81.0010521 Z M56.685156,83.875473 C55.9331561,83.875473 55.542314,83.445052 55.542314,82.9948415 C55.542314,82.5941046 55.7748403,82.3219994 56.1458929,82.1587362 L56.1458929,82.1438941 C55.8094719,81.980631 55.6561034,81.7134731 55.6561034,81.4314731 C55.6561034,80.9070521 56.1211561,80.5508416 56.7296823,80.5508416 C57.4223139,80.5508416 57.7389455,80.9664205 57.7389455,81.3622099 C57.7389455,81.6343152 57.5954718,81.9163152 57.2442086,82.0894731 L57.2442086,82.1043152 C57.5954718,82.2378941 57.8576823,82.5149467 57.8576823,82.9156836 C57.8576823,83.4895783 57.3728402,83.875473 56.685156,83.875473 Z M56.7049455,83.445052 C57.0265244,83.445052 57.2392613,83.2422099 57.2392613,82.9651572 C57.2392613,82.6386309 56.9968402,82.4605257 56.6406297,82.3615783 C56.3388403,82.450631 56.1656824,82.6584204 56.1656824,82.9255783 C56.1557876,83.1976836 56.3635771,83.445052 56.7049455,83.445052 Z M56.6999981,80.9713679 C56.3932613,80.9713679 56.2349455,81.17421 56.2349455,81.4067363 C56.2349455,81.6689468 56.4526297,81.8272626 56.7593666,81.9113678 C56.9770508,81.847052 57.1601034,81.6689468 57.1601034,81.4265257 C57.1601034,81.2038942 57.0265244,80.9713679 56.6999981,80.9713679 Z M59.277577,83.8655783 L59.277577,83.3856835 C59.371577,83.3955783 59.465577,83.3906309 59.613998,83.3757888 C59.8514717,83.3559993 60.0889454,83.2718941 60.2670506,83.1284204 C60.4748401,82.9602099 60.6183138,82.7177888 60.6776822,82.4159994 L60.6677875,82.411052 C60.5045243,82.5941046 60.2769454,82.6979994 59.9652612,82.6979994 C59.4062086,82.6979994 58.9906296,82.2923152 58.9906296,81.698631 C58.9906296,81.0851573 59.465577,80.5508416 60.1532612,80.5508416 C60.9003138,80.5508416 61.3010506,81.1395784 61.3010506,81.9212626 C61.3010506,82.6089467 61.0734716,83.0987362 60.741998,83.4153678 C60.459998,83.6775783 60.0741033,83.8259993 59.6436822,83.8556835 C59.5051559,83.8705256 59.3666296,83.8705256 59.277577,83.8655783 Z M60.1235769,81.0010521 C59.8168401,81.0010521 59.5942085,81.2731573 59.5942085,81.6639994 C59.5991559,81.9954731 59.7871559,82.2527362 60.1235769,82.2527362 C60.3709454,82.2527362 60.5490506,82.1389468 60.6430506,81.9855783 C60.6628401,81.9459994 60.6776822,81.8965257 60.6776822,81.8124205 C60.6826296,81.377052 60.5193664,81.0010521 60.1235769,81.0010521 Z" id="WIEDENBRÜCK-|-1989"></path>
            <path d="M59.8169721,21.5162345 L56.820546,21.5162345 C56.9158999,21.3977644 56.9838035,21.311079 56.986693,21.3067447 C57.7986465,20.2188427 57.385446,18.8925557 57.0545966,17.826325 C56.9375713,17.4477986 56.826325,17.0894989 56.7974299,16.7933237 C56.261425,13.6668694 54.5956201,11.22523 53.6001825,9.7660254 C53.3979165,9.4698502 53.2216561,9.21123869 53.0872937,8.99452513 C52.4559349,7.97452665 51.6540947,6.97186526 50.9692799,6.18013839 L57.9994677,6.18013839 C59.6551593,6.18013839 59.8097483,7.57866322 59.8169721,7.99764276 L59.8169721,21.5162345 Z M59.8169721,22.7803969 L55.7037488,22.7803969 C56.0837199,22.3917573 56.410235,22.0161204 56.6413961,21.7358376 L59.8169721,21.7358376 L59.8169721,22.7803969 Z M59.8169721,24.0445593 L54.1477454,24.0445593 C54.5883963,23.7989507 55.0492738,23.4175348 55.4769219,23 L59.8169721,23 L59.8169721,24.0445593 Z M59.8169721,25.3087218 L48.1837883,25.3087218 C48.2126834,25.3000532 48.2502471,25.2899399 48.2776975,25.2812714 C48.6966771,25.1613566 48.988518,25.0775606 49.1026538,25.0529998 C50.6861075,24.7178161 52.7535549,24.3248422 53.3704661,24.3161737 C53.4354802,24.3161737 53.5120523,24.27861 53.5814007,24.2641624 L59.8169721,24.2641624 L59.8169721,25.3087218 Z M59.8169721,26.5728842 L43.2586115,26.5728842 C44.790054,26.2449243 46.2926013,25.8418371 47.406509,25.5283248 L59.8169721,25.5283248 L59.8169721,26.5728842 Z M59.8169721,27.8370466 L37.1313969,27.8370466 C37.2758726,27.7546955 37.421793,27.6723443 37.5576002,27.5928827 C39.271082,27.2764809 40.6623831,27.0294274 40.9441107,26.9918637 C41.3356399,26.936963 41.7430614,26.8690594 42.1548171,26.7924873 L59.8169721,26.7924873 L59.8169721,27.8370466 Z M59.8169721,29.101209 L35.0697285,29.101209 L35.0812866,29.089651 C35.2358756,28.9235039 36.078169,28.4380655 36.7456467,28.0566497 L59.8169721,28.0566497 L59.8169721,29.101209 Z M59.8169721,30.3653715 L33.7622234,30.3653715 C34.2288799,29.9203863 34.6117406,29.5519732 34.8486807,29.3208121 L59.8169721,29.3208121 L59.8169721,30.3653715 Z M59.8169721,31.6295339 L32.4272679,31.6295339 C32.807239,31.2712341 33.1828758,30.9158239 33.5310623,30.5849745 L59.8169721,30.5849745 L59.8169721,31.6295339 Z M59.8169721,32.8936963 L31.0735305,32.8936963 C31.4231617,32.5700707 31.8045776,32.2132157 32.1917725,31.8491369 L59.8169721,31.8491369 L59.8169721,32.8936963 Z M59.8169721,34.1578587 L29.6706714,34.1578587 C29.8324842,34.0321649 30.2731351,33.6334119 30.8365904,33.1132994 L59.8169721,33.1132994 L59.8169721,34.1578587 Z M59.8169721,35.4220211 L28.2591438,35.4220211 C28.7546955,34.9683674 29.1592274,34.5999544 29.4120599,34.3774618 L59.8169721,34.3774618 L59.8169721,35.4220211 Z M59.8169721,36.6861836 L27.7621474,36.6861836 C27.6956885,36.5099232 27.6292297,36.2989887 27.5642156,36.0620485 C27.7274732,35.9132385 27.8705041,35.7803209 28.0207589,35.6416242 L59.8169721,35.6416242 L59.8169721,36.6861836 Z M59.8169721,37.950346 L28.3978405,37.950346 C28.3790586,37.59927 28.2678123,37.2915368 27.9774162,37.1051631 C27.9384077,37.0675994 27.8965098,36.9939168 27.8546118,36.9057866 L59.8169721,36.9057866 L59.8169721,37.950346 Z M59.8169721,39.2145084 L28.1666793,39.2145084 C28.2923732,38.8692115 28.3819481,38.5080222 28.40073,38.1699491 L59.8169721,38.1699491 L59.8169721,39.2145084 Z M59.8169721,40.4786708 L27.5367653,40.4786708 C27.5454338,40.4671128 27.5555471,40.4613337 27.5627709,40.4483309 C27.7043571,40.2301726 27.9066231,39.8545358 28.0799939,39.4341115 L59.8169721,39.4341115 L59.8169721,40.4786708 Z M59.8169721,41.7428332 L21.6652726,41.7428332 C21.9051023,41.4842217 22.2605125,41.1215877 22.6896054,40.6982739 L24.4897726,40.6982739 C24.5230021,40.7170557 24.5620105,40.7416166 24.5894609,40.7502851 C24.9622082,40.8673105 25.6036803,41.0666869 26.2205916,41.0666869 C26.6366816,41.0666869 27.0368793,40.9684435 27.3388335,40.6982739 L59.8169721,40.6982739 L59.8169721,41.7428332 Z M59.8169721,43.0069957 L21.603148,43.0069957 C21.5005703,42.868299 21.3878792,42.7426051 21.2809672,42.6458064 C21.2202874,42.5880161 21.1552734,42.5490077 21.0888145,42.5244468 C21.1653867,42.3944187 21.2578511,42.2470535 21.3647631,42.0939092 C21.383545,42.0650141 21.4413353,42.0043343 21.4745647,41.9624363 L59.8169721,41.9624363 L59.8169721,43.0069957 Z M59.8169721,44.2711581 L21.9094365,44.2711581 C21.9094365,44.2263706 21.9079918,44.1642461 21.9079918,44.1266824 L21.900768,43.7626036 C21.894989,43.5690062 21.8285301,43.391301 21.7404,43.2265987 L59.8169721,43.2265987 L59.8169721,44.2711581 Z M59.8169721,45.5353205 L21.960003,45.5353205 C21.9325527,45.2073607 21.9195498,44.8201658 21.9137708,44.4907612 L59.8169721,44.4907612 L59.8169721,45.5353205 Z M59.8169721,46.7994829 L22.8022964,46.7994829 C22.4223253,46.4773021 22.1174816,46.1854612 22.0380199,46.038096 C22.0149038,45.9788609 22.0004562,45.8676146 21.9845639,45.7549236 L59.8169721,45.7549236 L59.8169721,46.7994829 Z M59.8169721,48.0636454 L24.5461182,48.0636454 C24.1242491,47.8223709 23.5636834,47.4192837 23.0666869,47.019086 L59.8169721,47.019086 L59.8169721,48.0636454 Z M59.8169721,49.3278078 L26.3390617,49.3278078 C26.0284389,48.749905 25.6094594,48.2861379 25.0907916,48.2861379 C25.0806783,48.2861379 25.070565,48.2861379 25.0590069,48.2875827 C25.0561174,48.2875827 25.0517831,48.2832484 25.0488936,48.2832484 L59.8169721,48.2832484 L59.8169721,49.3278078 Z M59.8169721,50.5919702 L26.812942,50.5919702 C26.7334803,50.2567866 26.6135655,49.8927078 26.4531975,49.5474108 L59.8169721,49.5474108 L59.8169721,50.5919702 Z M59.8169721,51.8561326 L26.8519504,51.8561326 C26.9025169,51.7058779 26.9371911,51.5339518 26.9285225,51.3157935 C26.9241883,51.1770968 26.8981826,51.0008364 26.860619,50.8115733 L59.8169721,50.8115733 L59.8169721,51.8561326 Z M59.8169721,57.0009125 C59.8169721,58.6580488 58.4184473,58.8111931 57.9994677,58.8184169 L8.99619801,58.8184169 C7.34195118,58.8184169 7.18736218,57.419892 7.18013839,57.0009125 L7.18013839,52.0757357 L17.6502928,52.0757357 C18.9722455,52.5712874 22.9366588,52.7663296 24.6010189,52.7663296 C24.9997719,52.7663296 25.2656072,52.7547715 25.3306212,52.7331001 C25.4346438,52.6998707 25.5473348,52.6810889 25.6600259,52.662307 C25.9793172,52.6045168 26.4849821,52.5033838 26.7508174,52.0757357 L59.8169721,52.0757357 L59.8169721,57.0009125 Z M7.18013839,50.8115733 L16.322561,50.8115733 C16.5970649,51.1091932 16.8412288,51.3822523 17.0030416,51.5642917 L17.2645426,51.8561326 L7.18013839,51.8561326 L7.18013839,50.8115733 Z M7.18013839,49.5474108 L15.0453958,49.5474108 C15.389248,49.843586 15.7677743,50.2221124 16.1159608,50.5919702 L7.18013839,50.5919702 L7.18013839,49.5474108 Z M7.18013839,48.2832484 L11.446506,48.2832484 C12.0056269,48.5750893 12.5719717,48.8004714 12.8464756,48.8727093 C13.2553418,48.9810661 13.4677211,48.9723975 13.6829899,48.9507262 C13.8260208,48.9362786 13.9372671,48.9276101 14.3100144,49.0475249 C14.4342636,49.0879781 14.5975211,49.1948901 14.7723367,49.3278078 L7.18013839,49.3278078 L7.18013839,48.2832484 Z M7.18013839,47.019086 L9.97429853,47.019086 C9.98441183,47.060984 9.98152232,47.1014372 10.0003042,47.1433351 C10.1288875,47.4467341 10.5579804,47.7732492 11.0506425,48.0636454 L7.18013839,48.0636454 L7.18013839,47.019086 Z M7.18013839,45.7549236 L10.4120599,45.7549236 C10.2372443,46.156566 10.0898791,46.4729678 10.0161965,46.6058855 C9.98296707,46.6665653 9.97285378,46.7330241 9.96274048,46.7994829 L7.18013839,46.7994829 L7.18013839,45.7549236 Z M7.18013839,44.4907612 L10.9307277,44.4907612 C10.7905863,44.8519504 10.6446658,45.2102502 10.5059691,45.5353205 L7.18013839,45.5353205 L7.18013839,44.4907612 Z M7.18013839,43.2265987 L11.4176108,43.2265987 C11.3742681,43.326287 11.3121436,43.4086381 11.2774694,43.5169949 C11.2037868,43.7496008 11.1113223,44.0082123 11.0130789,44.2711581 L7.18013839,44.2711581 L7.18013839,43.2265987 Z M7.18013839,41.9624363 L12.3003574,41.9624363 C12.0012927,42.2470535 11.7397917,42.6010189 11.5245228,43.0069957 L7.18013839,43.0069957 L7.18013839,41.9624363 Z M7.18013839,40.6982739 L13.5327352,40.6982739 C13.5255114,40.8860923 13.50384,41.0421261 13.3853699,41.1215877 C13.1498745,41.280511 12.8551441,41.494335 12.5589689,41.7428332 L7.18013839,41.7428332 L7.18013839,40.6982739 Z M7.18013839,39.4341115 L16.4829291,39.4341115 C16.1029579,39.7822979 15.6868679,40.1492662 15.2967835,40.4786708 L14.8084556,40.4786708 C14.7304387,40.1810509 14.6018554,39.8993232 14.3027907,39.7909665 C14.0456239,39.7013915 13.866474,39.788077 13.7812334,39.847312 C13.557296,40.00768 13.5414037,40.2590678 13.5428485,40.4786708 L7.18013839,40.4786708 L7.18013839,39.4341115 Z M7.18013839,38.1699491 L17.7817656,38.1699491 C17.7702076,38.1829519 17.7543153,38.206068 17.7427572,38.2190708 C17.5910577,38.3953312 17.1980838,38.7753023 16.7227587,39.2145084 L7.18013839,39.2145084 L7.18013839,38.1699491 Z M7.18013839,36.9057866 L18.730971,36.9057866 C18.4333511,37.3305452 18.1776291,37.6729526 17.9565812,37.950346 L7.18013839,37.950346 L7.18013839,36.9057866 Z M7.18013839,35.6416242 L19.5819329,35.6416242 C19.3406585,36.0100373 19.1066079,36.3596685 18.8812258,36.6861836 L7.18013839,36.6861836 L7.18013839,35.6416242 Z M7.18013839,34.3774618 L19.9777964,34.3774618 C19.9850202,34.5537222 19.9936887,34.7025321 20.0066915,34.8079994 C20.0110258,34.839784 20.0298076,34.887461 20.0456999,34.9308037 C19.9387879,35.0983956 19.8318759,35.2573188 19.7249639,35.4220211 L7.18013839,35.4220211 L7.18013839,34.3774618 Z M7.18013839,33.1132994 L19.956125,33.1132994 C19.961904,33.3459053 19.9647936,33.5669531 19.9662383,33.7504372 C19.9676831,33.900692 19.9705726,34.0263858 19.9734621,34.1578587 L7.18013839,34.1578587 L7.18013839,33.1132994 Z M7.18013839,31.8491369 L19.8809976,31.8491369 C19.9185613,32.1785416 19.9387879,32.5440651 19.950346,32.8936963 L7.18013839,32.8936963 L7.18013839,31.8491369 Z M7.18013839,30.5849745 L19.3652194,30.5849745 C19.4417915,30.6601019 19.5255874,30.7540111 19.6353889,30.8999316 C19.7365219,31.0328492 19.8044255,31.3044635 19.8521025,31.6295339 L7.18013839,31.6295339 L7.18013839,30.5849745 Z M7.18013839,29.3208121 L18.1588472,29.3208121 C18.2455327,29.5014067 18.3379971,29.6675538 18.4405749,29.7889134 C18.7223025,30.1197628 18.9158999,30.2497909 19.0863813,30.3653715 L7.18013839,30.3653715 L7.18013839,29.3208121 Z M7.18013839,28.0566497 L17.7658733,28.0566497 C17.8323321,28.4149494 17.9305756,28.780473 18.059159,29.101209 L7.18013839,29.101209 L7.18013839,28.0566497 Z M7.18013839,26.7924873 L17.7109725,26.7924873 C17.7109725,26.793932 17.7095278,26.793932 17.7095278,26.793932 C17.6560718,27.0510988 17.6676298,27.4296251 17.7268649,27.8370466 L7.18013839,27.8370466 L7.18013839,26.7924873 Z M7.18013839,25.5283248 L19.4909132,25.5283248 L19.3045396,25.6236788 C18.7642004,25.8996274 18.3640027,26.1033381 18.0938332,26.234811 C17.9594708,26.3012699 17.8698958,26.4226295 17.7991027,26.5728842 L7.18013839,26.5728842 L7.18013839,25.5283248 Z M7.18013839,24.2641624 L25.9431982,24.2641624 L25.6455783,24.7004791 C25.5603376,24.7134819 25.4649837,24.7337085 25.3840773,24.742377 C25.3624059,24.6874762 25.3349555,24.6340202 25.2973918,24.5834537 C24.963653,24.1066839 24.4666565,24.3190632 24.1979317,24.433199 C24,24.5198844 23.8107368,24.635465 23.547791,24.6007908 L23.3744202,24.5979013 C22.5899171,24.582009 21.3965478,24.5560033 20.2364079,25.1497985 L19.9228956,25.3087218 L7.18013839,25.3087218 L7.18013839,24.2641624 Z M7.18013839,23 L27.68702,23 C27.0253213,23.3048437 26.4748688,23.6486959 26.1266824,24.0445593 L7.18013839,24.0445593 L7.18013839,23 Z M7.18013839,21.7358376 L31.1168732,21.7358376 C30.8163638,21.8456391 30.4869592,21.9597749 30.1821154,22.0623527 C29.5261957,22.2848453 28.8370466,22.5203407 28.1999088,22.7803969 L7.18013839,22.7803969 L7.18013839,21.7358376 Z M7.18013839,7.99764276 C7.18013839,6.34628545 8.57143943,6.18880693 9.00342179,6.18013839 L32.0516311,6.18013839 C31.6846628,7.73903125 31.1414341,10.3641548 30.9565052,12.9459357 C30.8004714,15.1419664 31.2541252,17.2339746 31.6196487,18.9156718 C31.8479203,19.9602312 32.045852,20.8704281 31.980838,21.3616455 C31.9187134,21.4049882 31.8132461,21.4584442 31.6817732,21.5162345 L7.18013839,21.5162345 L7.18013839,7.99764276 Z M42.9609916,16.7268649 C43.0910197,16.2891035 43.1791499,15.9380275 43.2051555,15.7314273 C43.2311611,15.5349403 43.2860619,15.2142042 43.3597445,14.8168961 C44.0604517,15.3283401 44.8030568,15.8383393 45.6366816,16.3194434 C45.5716676,16.3194434 45.5023192,16.3208881 45.4329709,16.3237777 C44.938864,16.3411147 44.0373356,16.4639191 42.9609916,16.7268649 L42.9609916,16.7268649 Z M30.4652878,22.8974222 C32.0689681,22.3541936 32.7248878,22.1129192 32.8289103,21.6231465 C32.9690518,20.9701163 32.753783,19.9804578 32.4821687,18.7278534 C32.1282032,17.1025017 31.6875523,15.0783971 31.8363623,13.009505 C32.0241807,10.3627101 32.6006387,7.66968291 32.9574937,6.18013839 L34.9223633,6.18013839 C35.4208045,6.85772945 37.9043419,10.196563 39.1136035,11.2555699 C39.3375409,11.4520569 39.5845943,11.6745495 39.8518744,11.9158239 C40.5872557,12.5804121 41.5017869,13.3938104 42.5723519,14.2303247 C42.4567713,14.8385674 42.3657517,15.3427876 42.3310775,15.6216257 C42.3007376,15.8571211 42.1562619,16.3700099 41.9525511,17.0100373 C40.0252452,17.6009429 37.7598662,18.6310547 36.0261577,20.3965478 C35.9914835,20.431222 35.9669227,20.4644514 35.9466961,20.5077941 C35.5566117,21.1420424 30.5274124,23.5750133 29.0320888,23.9520949 L28.7662535,24.0199985 C28.3544978,24.1269105 27.6653486,24.3017261 26.9386358,24.4606494 C27.639343,23.8538514 29.2488024,23.309178 30.4652878,22.8974222 L30.4652878,22.8974222 Z M23.547791,39.85887 C23.7818417,40.1117025 23.994221,40.3226371 24.1762604,40.4786708 L22.9135427,40.4786708 C23.1158087,40.2792944 23.3238537,40.0770284 23.547791,39.85887 L23.547791,39.85887 Z M14.8561326,40.6982739 L15.0309482,40.6982739 C14.9818265,40.7401719 14.9298152,40.7835146 14.8821382,40.822523 C14.8749145,40.7820698 14.8648012,40.7401719 14.8561326,40.6982739 L14.8561326,40.6982739 Z M20.6409399,41.589689 C19.843434,42.7368261 19.961904,43.0272223 20.009581,43.1471371 C20.0601475,43.2757205 20.2248498,43.5473348 20.7839708,43.391301 C20.9428941,43.5588929 21.0180214,43.7091476 21.020911,43.7943883 L21.02669,44.1367957 C21.0368033,45.0296555 21.0599194,45.936963 21.2116189,46.3443845 C21.4442248,46.9728538 24.1516995,49.1688845 25.0662307,49.1688845 C25.0720097,49.1688845 25.0792335,49.1688845 25.0850125,49.1674397 C25.3638507,49.1804426 26.0154361,50.4287126 26.0486655,51.3475781 C26.0602236,51.6639799 26.0139913,51.7029884 25.5039921,51.7940081 C25.3508478,51.8214584 25.1991484,51.8503536 25.0734545,51.8922515 C24.4478747,52.0309482 18.5344841,51.6495324 17.9190176,51.2666717 L17.6618508,50.9791651 C16.5912858,49.7756825 15.3820242,48.4681773 14.5830735,48.2095658 C14.223329,48.0939852 14.003726,48.0622006 13.818797,48.0622006 C13.7407802,48.0622006 13.6699871,48.0665349 13.5977492,48.0737586 C13.4662763,48.0882062 13.3622538,48.0968748 13.0689681,48.0203026 C12.4246065,47.8527108 11.1980078,47.1982359 10.8714927,46.8688313 C11.1633336,46.2793704 11.7918029,44.8042734 12.1168732,43.784275 C12.4188275,42.8350696 13.2972398,42.2441639 13.8968139,41.8381872 C14.0123945,41.7601703 14.1034142,41.6720401 14.1742073,41.5752414 C14.2421109,41.7153829 14.3417991,41.8295187 14.4992776,41.8901985 C14.6105239,41.9335412 14.835906,41.9768839 15.0901833,41.7818417 C16.1997567,40.9308798 17.9955897,39.2737434 18.4087902,38.7955289 C18.6529541,38.515246 19.5544825,37.2611969 20.509467,35.8106608 C21.0917041,36.7569767 22.0813626,38.1266063 22.9684435,39.1899475 C21.8155273,40.3053 20.8807695,41.2472816 20.6409399,41.589689 L20.6409399,41.589689 Z M34.4369249,28.4900768 C34.0309482,28.9249487 29.5912098,33.1075203 29.1231085,33.4672648 C29.0017489,33.5611741 28.2822599,34.2113147 27.3287202,35.0882823 C27.1394571,34.1824196 27.0094289,33.2635541 27.0513269,33.0063873 C27.1293438,32.7058779 27.8026006,31.7378907 28.0901072,31.3232454 C28.1955745,31.1729906 28.2793704,31.0516311 28.3270474,30.9779484 C28.561098,30.6167592 28.4455175,30.1154285 28.2562543,29.767242 C28.2548095,29.7629078 28.25192,29.7585735 28.2490305,29.7527945 C28.5654323,29.6140978 28.9829671,29.4436165 29.6013231,29.2167896 C30.0795377,29.041974 32.498061,28.5536461 34.9859326,28.0768763 C34.7258764,28.2430233 34.5366132,28.38172 34.4369249,28.4900768 L34.4369249,28.4900768 Z M56.2802068,20.7808532 C55.3945708,21.971333 53.8746863,23.4290928 53.3603528,23.4348719 C52.5036119,23.4464299 49.7455707,24.0156642 48.9206144,24.1904798 C48.7978101,24.2164854 48.4842978,24.3060604 48.0349783,24.4346438 C46.5208729,24.8680709 43.3727473,25.7695993 40.8241959,26.1177857 C40.3098624,26.1885788 30.4884039,27.9540719 29.2979241,28.3889438 C28.2186906,28.7848072 27.728918,29.0174131 27.2911566,29.2225686 C27.1047829,29.3121436 26.9516387,29.5028515 26.9964261,29.7036727 C27.0412136,29.9059387 27.1654627,30.0345221 27.3706182,30.0359668 C27.4703064,30.1067599 27.6003346,30.4173827 27.5873318,30.4997339 C27.5425443,30.5676374 27.4645274,30.6803285 27.3662839,30.8204699 C26.812942,31.6165311 26.3087218,32.36636 26.1989202,32.7838948 C26.051555,33.3487948 26.669911,37.3045396 27.4833093,37.8318759 C27.6321192,37.9720173 27.4211847,39.0483613 26.8245,39.9686716 C26.5239906,40.4295491 25.2641624,40.0380199 24.7902821,39.8935442 C24.2051555,39.5525816 21.0238005,35.3151091 20.8807695,34.6909741 C20.8547639,34.4973766 20.8533191,34.1520797 20.8489849,33.7403239 C20.8330925,32.2421109 20.782526,30.9548323 20.3389856,30.368261 C19.9994677,29.9174968 19.7784199,29.767242 19.5819329,29.6372139 C19.4403467,29.5418599 19.3175424,29.4595088 19.1123869,29.2182344 C18.7381948,28.7761387 18.4723595,27.3790586 18.5677135,26.98464 C18.8378831,26.8502775 19.2149646,26.6595696 19.706182,26.4081819 L20.6351608,25.9343016 C21.6002585,25.4430842 22.6635997,25.4662003 23.3570831,25.4792031 L23.5333435,25.4835374 C23.8165159,25.4864269 24.0577903,25.4286366 24.2586115,25.3578435 C24.356855,25.6944719 24.7021519,25.6785796 24.8943046,25.669911 C26.1310167,25.6150103 28.1320052,25.0948977 28.9873013,24.8738499 L29.2473576,24.8059463 C30.4638431,24.4996578 35.9423618,22.0710212 36.6878564,20.9787849 C39.3794388,18.2684207 43.7570527,17.2657593 45.4633108,17.2036347 C46.2637062,17.1732948 46.7130256,17.3307733 47.0395407,17.4434644 C47.394951,17.5677135 47.8023724,17.7092997 48.2242415,17.3119915 C48.3311535,17.2123032 48.38172,17.0620485 48.3571592,16.9161281 C48.3325983,16.7716523 48.2372443,16.6474032 48.1014372,16.5867234 C44.635465,15.0509467 42.1114744,12.7711201 40.4413353,11.2613489 C40.1711657,11.017185 39.9212227,10.7918029 39.6929511,10.5924264 C38.7567485,9.77180443 36.9016805,7.35328112 36.0218234,6.18013839 L49.7918029,6.18013839 C50.5271842,6.99209186 51.5746331,8.22735914 52.3374648,9.45829215 C52.4776063,9.685119 52.6610904,9.95384381 52.8720249,10.2630218 C53.8270094,11.6629914 55.4249107,14.0049426 55.9247966,16.910349 C55.958026,17.2643145 56.0822751,17.6645122 56.213748,18.087826 C56.4998099,19.0081363 56.8234355,20.0512509 56.2802068,20.7808532 L56.2802068,20.7808532 Z M57.9994677,4 L8.99619801,4 C7.38962817,4 5,5.06478595 5,7.99764276 L5,57.0009125 C5,58.6074823 6.06478595,61 8.99619801,61 L57.9994677,61 C59.6060376,61 61.9971105,59.9352141 61.9971105,57.0009125 L61.9971105,7.99764276 C61.9971105,6.39107292 60.9323245,4 57.9994677,4 L57.9994677,4 Z" id="lg-burg"></path>
        </g>
</svg>